# xmcd
#
# Track frame offsets:
#	150
#	22991
#	42993
#	63959
#	88888
#	115842
#	133261
#	169540
#	184628
#	201331
#	225658
#
# Disc length: 3172 seconds
#
# Revision: 1
# Processed by: cddbd v1.5.2PL0 Copyright (c) Steve Scherf et al.
# Submitted via: audiograbber 1.83.01
#
DISCID=910c620b
DTITLE=Tomas Boström - Sammet
DYEAR=2007
DGENRE=Ballad
TTITLE0=Resan
TTITLE1=Dagbön
TTITLE2=Förlorad
TTITLE3=Martyr
TTITLE4=Rum
TTITLE5=Fredag
TTITLE6=Eftertanke
TTITLE7=Innanför
TTITLE8=Closer
TTITLE9=Bed för mig
TTITLE10=Tystnad
EXTD=
EXTT0=
EXTT1=
EXTT2=
EXTT3=
EXTT4=
EXTT5=
EXTT6=
EXTT7=
EXTT8=
EXTT9=
EXTT10=
PLAYORDER=
